<svg viewBox="0 0 400 300" xmlns="http://www.w3.org/2000/svg">
  <defs>
    <linearGradient id="bgGrad" x1="0%" y1="0%" x2="100%" y2="100%">
      <stop offset="0%" style="stop-color:#E8F5E9;stop-opacity:1" />
      <stop offset="100%" style="stop-color:#C8E6C9;stop-opacity:1" />
    </linearGradient>
  </defs>
  
  <rect width="400" height="300" fill="url(#bgGrad)" rx="12"/>
  
  <!-- Decorative leaves -->
  <path d="M100 150 C80 120 90 80 120 70 C150 60 170 80 160 110 C150 140 120 160 100 150 Z" 
        fill="#81C784" opacity="0.3"/>
  <path d="M300 180 C280 150 290 110 320 100 C350 90 370 110 360 140 C350 170 320 190 300 180 Z" 
        fill="#A5D6A7" opacity="0.3"/>
  <path d="M200 50 C180 30 190 10 210 5 C230 0 240 15 235 35 C230 55 210 60 200 50 Z" 
        fill="#C8E6C9" opacity="0.4"/>
  
  <!-- Center icon -->
  <circle cx="200" cy="150" r="50" fill="#4CAF50" opacity="0.15"/>
  <circle cx="200" cy="150" r="35" fill="none" stroke="#4CAF50" stroke-width="2" opacity="0.3"/>
  <path d="M200 120 L200 180" stroke="#4CAF50" stroke-width="2" opacity="0.3"/>
  <path d="M175 150 L225 150" stroke="#4CAF50" stroke-width="2" opacity="0.3"/>
  
  <!-- Leaf icon in center -->
  <path d="M200 170 C188 170 178 162 178 150 C178 138 188 130 200 130 C212 130 222 138 222 150 C222 162 212 170 200 170 Z" 
        fill="#4CAF50" opacity="0.4"/>
  <path d="M200 170 L200 130" stroke="#2E7D32" stroke-width="1.5" opacity="0.3"/>
  
  <text x="200" y="230" font-family="'Nunito', sans-serif" font-size="18" font-weight="600" fill="#388E3C" text-anchor="middle" opacity="0.6">
    Natural Remedy
  </text>
</svg>
